#!OML:ASF E:/inclinewalkrobotboard/Project1/Captureday1/Session1/subject1.ASF
:FULLY-SPECIFIED
:DEGREES
51
root 0 0 0 1.5399644190279114 -3.868586418023252 1.851801000110365
lowerback 12.239244687434661 0.9610060909874478 0.025286430906433732
upperback -4.446795470322478 1.2166718167760806 -0.6310008711796561
thorax -11.73554013377386 0.5627768023438027 -0.9372444932561466
lowerneck -6.067653063468107 1.8661165964542394 4.773942947370149
upperneck 18.11074554131263 3.4989822380146522 -8.58545169657209
head 6.648477117128602 1.307730365394307 -3.2799658453005067
rclavicle 2.1624485062313903E-15 -7.082334666487673E-16
rhumerus 21.08753532470658 15.626539555166987 -47.80726337555879
rradius 73.27583343056764
rwrist 26.694464411028704
rhand -34.6150336938067 -57.180866146935685
rfingers 7.1250200000000286
rthumb -7.717357635647248 -87.14184206699444
lclavicle -7.3848091272493E-16 -7.485365429536068E-16
lhumerus 23.16862951620091 -14.451813803432895 44.74487305469416
lradius 71.82638777264418
lwrist -22.25466904409261
lhand -45.75327251825263 -71.95539267165285
lfingers 7.1250200000000286
lthumb -18.507350515633327 -42.73878872523427
rfemur -24.971351494109197 -1.9533457779953105 17.77545695193008
rtibia 50.67021286579406
rfoot -34.25593597611376 -18.28671545349915
rtoes -21.872540421567063
lfemur -28.083452090159224 2.143090866593057 -17.152331981221234
ltibia 50.867604689662855
lfoot -35.54138225390287 -0.2801394977580589
ltoes -22.094958256106395
52
root 0 0 0 1.5398752664721633 -3.8681980208301114 1.8519590874575345
lowerback 12.23935697905005 0.960816159280685 0.025118821960236848
upperback -4.446819286145147 1.2164126465827318 -0.6309799658306138
thorax -11.735650100130165 0.5626524661201266 -0.9371049506321076
lowerneck -6.067498015096765 1.8661357903410092 4.773989977080699
upperneck 18.110434673321016 3.4990251100616314 -8.585488567747513
head 6.648352120360811 1.3077549511448874 -3.2799796661378746
rclavicle 2.1604784887029437E-15 -7.086867394050226E-16
rhumerus 21.087850086575486 15.626866190493862 -47.80735415770789
rradius 73.27611885284331
rwrist 26.694280587036452
rhand -34.615108796023385 -57.18085270991488
rfingers 7.1250200000000286
rthumb -7.717442929083999 -87.14197329581734
lclavicle -7.403195057082739E-16 -7.493040664389447E-16
lhumerus 23.168961761369317 -14.452389100708206 44.7449473876798
lradius 71.82691257188296
lwrist -22.25439942925061
lhand -45.75343152264388 -71.95542087566167
lfingers 7.1250200000000286
lthumb -18.50750458385698 -42.7388037253056
rfemur -24.971311211190475 -1.95312056676869 17.77548981160897
rtibia 50.668327654203765
rfoot -34.25644174685627 -18.28622757699871
rtoes -21.874710266276217
lfemur -28.08172882765222 2.143149631137109 -17.152913405982805
ltibia 50.866538406160416
lfoot -35.5419794773851 -0.2802136859666846
ltoes -22.09549934068597
53
root 0 0 0 1.5398126584810576 -3.867979223017027 1.85194971235792
lowerback 12.239440577229596 0.9607053147184899 0.025103000107985607
upperback -4.44682796871691 1.2162732298812835 -0.6309319145734668
thorax -11.735715310594925 0.5625834172339206 -0.9370337147066019
lowerneck -6.067400793694788 1.866160844767785 4.774026857180654
upperneck 18.11026875535729 3.499070654998529 -8.585540595170878
head 6.6482818101608805 1.3077754028567714 -3.279997455295314
rclavicle 2.159095898267046E-15 -7.098724590224017E-16
rhumerus 21.087524294801554 15.626291226772919 -47.8068045426462
rradius 73.27586547992004
rwrist 26.694885400941054
rhand -34.61514861424598 -57.18123456854339
rfingers 7.1250200000000286
rthumb -7.7174749536289085 -87.14233271552361
lclavicle -7.412191512215517E-16 -7.504361742585697E-16
lhumerus 23.169269816550333 -14.4527353772113 44.74497418700924
lradius 71.82719159228394
lwrist -22.254264852447974
lhand -45.75351120496529 -71.95551268990309
lfingers 7.1250200000000286
lthumb -18.507576855395246 -42.73885826954181
rfemur -24.97193731527336 -1.952567305029886 17.775984315870108
rtibia 50.664990016453935
rfoot -34.257888449690356 -18.286625745003903
rtoes -21.87494827212842
lfemur -28.08094008779652 2.143433405603079 -17.152994976008177
ltibia 50.86851877734664
lfoot -35.54102690784843 -0.28139475879588227
ltoes -22.096139512019036
54
root 0 0 0 1.5400635340613213 -3.869715316424072 1.8518856411581575
lowerback 12.238420618712226 0.9617890858606016 0.025285608868482135
upperback -4.446760631071329 1.2176305829807905 -0.6313511311143215
thorax -11.73497954630675 0.563257090062913 -0.9376871445071506
lowerneck -6.068049495876486 1.8658561151901318 4.773689010005507
upperneck 18.111668179632055 3.4984902729431546 -8.58491779605372
head 6.648826043470733 1.3075227389775033 -3.2797916661890163
rclavicle 2.1628724616425113E-15 -7.092059014947609E-16
rhumerus 21.086347065136906 15.626149692754721 -47.80817612154458
rradius 73.27552336162626
rwrist 26.69391259534079
rhand -34.61467118683983 -57.17784938397762
rfingers 7.1250200000000286
rthumb -7.716594157123243 -87.13954028941293
lclavicle -7.388793900528124E-16 -7.329863862700528E-16
lhumerus 23.16450386418935 -14.447986309790195 44.74468202378904
lradius 71.82351761371493
lwrist -22.25589942737942
lhand -45.75181124324923 -71.95395440862522
lfingers 7.1250200000000286
lthumb -18.50580745477162 -42.73736903951962
rfemur -24.97251058002268 -1.9511657566127827 17.774581819318083
rtibia 50.66494878086996
rfoot -34.25290287952761 -18.290551473564168
rtoes -21.863697667762416
lfemur -28.07984020869121 2.145796284625276 -17.151229554304212
ltibia 50.872897554193464
lfoot -35.52305909139464 -0.28486274402499623
ltoes -22.08765954474395
55
root 0 0 0 1.5399631364157225 -3.8685686899633596 1.8518355867733716
lowerback 12.239237215864975 0.9610008339316467 0.025252477287007136
upperback -4.446797895222693 1.21666052191169 -0.6310090855827638
thorax -11.735539574905772 0.5627721085016056 -0.9372327557821352
lowerneck -6.067649726480919 1.8661145253392755 4.773944618860669
upperneck 18.110755323271196 3.498979052724464 -8.585451038217169
head 6.648480274999183 1.3077291215023745 -3.2799663389445426
rclavicle 2.1625084846591856E-15 -7.081760403273012E-16
rhumerus 21.08755750795789 15.62657621997277 -47.80729309538306
rradius 73.27585067110161
rwrist 26.694432690589785
rhand -34.615031857470846 -57.18085265729698
rfingers 7.1250200000000286
rthumb -7.717355849898672 -87.1418283060332
lclavicle -7.384181268179843E-16 -7.484956832494798E-16
lhumerus 23.168636376893694 -14.451830713531551 44.744879344425975
lradius 71.82639704538167
lwrist -22.25465829531717
lhand -45.75327117033508 -71.9553742757566
lfingers 7.1250200000000286
lthumb -18.507349518258458 -42.73876912417286
rfemur -24.971610405935255 -1.9534786847854013 17.775215465597906
rtibia 50.67099038012633
rfoot -34.25540399852292 -18.2867436830238
rtoes -21.87233523511784
lfemur -28.08337284542737 2.1431062125363196 -17.15261482903974
ltibia 50.86711756509277
lfoot -35.54229395088694 -0.2797231626051935
ltoes -22.094830265153846
56
root 0 0 0 1.5398746949962066 -3.868176352221922 1.851987352777848
lowerback 12.239351145797919 0.9608088720936416 0.02508940010430638
upperback -4.446821192118996 1.2163994998593752 -0.6309852187896713
thorax -11.735649726346075 0.5626467006078661 -0.9370926000010869
lowerneck -6.067494567842954 1.8661344954953158 4.773991977636007
upperneck 18.1104395183283 3.4990232470230476 -8.585488630692591
head 6.648353567380364 1.3077542717268438 -3.2799802798800437
rclavicle 2.160536512619171E-15 -7.086087246263416E-16
rhumerus 21.08787063112787 15.62689888980058 -47.80738084133874
rradius 73.27613465744727
rwrist 26.69425244783781
rhand -34.61510737339326 -57.18084090038148
rfingers 7.1250200000000286
rthumb -7.7174415841360595 -87.1419611826727
lclavicle -7.402622032983289E-16 -7.492525570073315E-16
lhumerus 23.168984297622487 -14.452428914343688 44.744957437879876
lradius 71.82693902700953
lwrist -22.25437755392884
lhand -45.75343357440022 -71.95539596840095
lfingers 7.1250200000000286
lthumb -18.507506977805992 -42.73877725758483
rfemur -24.971529151972597 -1.9531717217407722 17.775366794972214
rtibia 50.668612230782585
rfoot -34.256233309253076 -18.28628907156492
rtoes -21.87458365468956
lfemur -28.08161933478001 2.143131465462527 -17.153111867709512
ltibia 50.86600769673096
lfoot -35.54275902595567 -0.2798504213487458
ltoes -22.09552087809987
